<svg xmlns="http://www.w3.org/2000/svg" viewBox="0 0 575.06 689.18">
    <path d="M340.85 139.07c1.44.19 2.87.45 4.31.58q7.44.61 14.9 1.16c3.66.28 7.33.5 11 .78s7.24.62 10.85.9 7.32.5 11 .78 7.31.61 11 .89 7.08.51 10.62.78c3.73.29 7.47.61 11.21.89 2.58.2 5.17.36 7.76.56l9.34.74-175 173.28-.18-.09 2.74-6.8q17-42.09 33.94-84.16l31.66-78.6 4.18-10.33c.18-.44.29-.91.43-1.36Zm-45.4 159.65c.38-.14.53-.18.67-.25l61.52-28.34 57.07-26.26a2.59 2.59 0 0 0 1.63-1.73q10-34.5 20.13-69c.77-2.65 1.53-5.3 2.36-8.18Q367 232 295.45 298.72Zm29-137.92c-1.43.11-2.64.19-3.85.31-3.85.36-7.7.75-11.55 1.11s-7.55.66-11.32 1-7.69.79-11.55 1.13c-1.59.14-1.64.07-1.58 1.62.2 5.55.45 11.09.67 16.63q.25 6.23.49 12.45.38 9.75.74 19.5c.15 3.79.31 7.58.45 11.37q.39 10 .76 20.11.21 6 .41 11.94h.19q18.01-48.46 36.12-97.17Z" fill="#e412f6"/>
    <path d="M295.45 298.72Q367.23 231.77 438.83 165c-.83 2.88-1.59 5.53-2.36 8.18q-10.08 34.5-20.13 69a2.59 2.59 0 0 1-1.63 1.73l-57.07 26.26-61.52 28.34c-.12.03-.29.07-.67.21Zm28.98-137.92q-18.15 48.81-36.14 97.2h-.19q-.19-6-.41-11.94-.37-10.06-.76-20.11c-.14-3.79-.3-7.58-.45-11.37l-.74-19.5q-.24-6.23-.49-12.45c-.22-5.54-.47-11.08-.67-16.63-.06-1.55 0-1.48 1.58-1.62 3.86-.34 7.7-.77 11.55-1.13s7.55-.67 11.32-1 7.7-.75 11.55-1.11c1.21-.14 2.42-.23 3.85-.34Z" fill="#e412f6"/>
    <path fill="#fff" fill-rule="evenodd" d="M52.04 586.08 4.42 648.61 0 689.17l48.59-63.8 3.45-39.29zm67.94-89.22-18.2 23.89-4.73 40.98 23.09-30.32-.16-34.55zm-34.2 79.68 2.56-38.12-24.32 31.93-4.12 40.16 25.88-33.97zm130.06-231.73-51.72 72.31-3.54 26.42L135 477.17l-4.05 40.08 18.6-24.43 26.92-15.5 79.35-103.12Zm-40.41 127.92-16.19 8.65 77.5-103.53 11.42-1.21Z"/>
    <rect x="201.13" y="334.73" width="89.98" height="21.57" rx="10.79" transform="rotate(35.9 245.644 348.843)" fill="#fff"/>
    <path d="M299.25 65a160.76 160.76 0 0 0-126.8 175.8c3.21-17.59 9-43.73 17.23-58.32 13.17-23.39 40.29-17 40.29-17s-20.24-31 25.29-72.36c27.66-25.1 80.6-27.88 117.91-26.2A160.12 160.12 0 0 0 299.25 65Z" fill="#e412f6"/>
    <path d="M263.23 36.88s2-.84 5.67-2.22c1.82-.64 4-1.62 6.57-2.35s5.52-1.67 8.74-2.58 6.77-1.51 10.51-2.28c1.87-.37 3.76-.8 5.73-1.14s4.05-.48 6.14-.72c4.18-.4 8.5-1.16 12.89-1.1l6.64-.15a62.21 62.21 0 0 1 6.69 0c4.46.31 8.92.52 13.29.91 4.36.59 8.63 1.3 12.77 1.92s8 1.84 11.74 2.71A90.07 90.07 0 0 1 380.92 33c3.15 1.1 6.08 2 8.56 3.07l6.4 2.84c3.53 1.6 5.52 2.56 5.52 2.56s-2.16-.56-5.87-1.61l-6.67-2a41.05 41.05 0 0 0-4.14-1l-4.59-1.09c-3.21-.72-6.63-1.67-10.36-2.22l-5.69-1c-1.95-.28-3.9-.8-5.94-1-4.06-.47-8.27-.88-12.51-1.45-4.28-.32-8.64-.47-13-.72-2.17-.21-4.34-.11-6.51-.11l-6.48.07c-4.31-.08-8.47.38-12.53.63-2 .14-4 .31-6 .41s-3.9.51-5.78.75l-5.48.73c-1.74.24-3.55.39-5.06.67-3.2.62-6.17 1.14-8.81 1.61s-4.93 1.08-6.81 1.46c-3.77.85-5.94 1.28-5.94 1.28Z" fill="#fff"/>
    <path d="M492.76 229.56c.91-6.18.89-16.39-.89-32.84-6.46-59.7-49.46-88.55-49.46-88.55s26.51 29.55 35.33 58c21.05 67.83-17.89 82.45-30.74 87.22 43.47 39.35-30.9 99-71.19 91.4-2.79 22.36-29.95 33.6-48.63 38.27a160.88 160.88 0 0 0 165.61-153.5Z" fill="#e412f6"/>
    <path d="M533.89 300.84c-27.08-14.4-21.45-36.79-17-45.74s31.48-11.16 31.48-11.16-30.85-5-30.69-12.51 9.93-10.1 57.39-18.87c-45.57-1.37-70.55-31.59-67.33-23.19 23.66 61.86-31.24 148.33-33 150.38.36.25 31.41-39.99 59.15-38.91ZM415.88 445.88c-5-36.39 7.08-59 20.25-72.94q5.63-4.76 11-9.84c.25-.23-.05-.73-.36-.52-8.37 5.53-16.63 11.31-25.19 16.56-6.61 3.67-13.22 7.15-19.47 10.26-12.81 5.4-26.46 8.65-39.31 14-.4.17-.13.73.25.69a165 165 0 0 0 20.29-3.65c6.98.79 17.66 7.65 32.54 45.44ZM324.37 0l8.14 26.68-13.3-1.96L324.37 0zM212.58 102.13c-6.77 3.27-43-10.33-58.54-17.1 19.45 11.26 29.41 24.36 32.87 32.48s-.06 19.46-.06 19.46 10.56-22.83 25.73-34.84Zm-1.48-40.96L179.92 27.6s9.1 32.29 13 33.84 16.69-1.73 18.18-.27Zm277.21 74.11c10.66 3.08 79.23-11.55 79.23-11.55s-59.48 18.62-70.7 29.81c-2.31-5.41-6.1-12.28-8.53-18.26Zm33.74 185.41 23.81 25.09S516.51 328 516 325.5s6.05-4.81 6.05-4.81Zm-220.42 87.62s-16.08 45.8-15.09 42.06 2.69-42.12 2.69-42.12Zm-111.47-86.76c-1.9 2-37.22 17.74-37.22 17.74l45.14-8.21Zm-29.24-108.42-33.75 3.52 34.32 3.44-.57-6.96z" fill="#fff"/>
</svg>
